<svg width="16" height="16" viewBox="0 0 16 16" fill="none" xmlns="http://www.w3.org/2000/svg">
<g clip-path="url(#clip0_2988_107744)">
<path d="M12.333 0.666992C12.8852 0.666992 13.3329 1.11538 13.333 1.66895V7.29199C13.3328 7.63703 13.0531 7.91699 12.708 7.91699C12.3631 7.9168 12.0832 7.63691 12.083 7.29199V1.91992H2.58301V14.0801H8.13965C8.48569 14.0801 8.7666 14.361 8.7666 14.707C8.76646 15.053 8.4856 15.333 8.13965 15.333H2.33301C1.78096 15.3328 1.33313 14.8845 1.33301 14.3311V1.66895C1.33313 1.1155 1.78096 0.667186 2.33301 0.666992H12.333ZM11.5176 9.70801C11.6513 9.20857 12.3595 9.20857 12.4932 9.70801C12.7282 10.5859 13.4141 11.2718 14.292 11.5068C14.7914 11.6405 14.7914 12.3487 14.292 12.4824C13.4175 12.7166 12.7345 13.3993 12.499 14.2734L12.4932 14.293C12.3588 14.7912 11.6519 14.7912 11.5176 14.293C11.2798 13.41 10.59 12.7202 9.70703 12.4824C9.2088 12.3481 9.20883 11.6412 9.70703 11.5068L9.72656 11.502C10.6008 11.2665 11.2834 10.5826 11.5176 9.70801ZM7.33301 7.33301C7.7012 7.33301 8 7.63181 8 8C8 8.36819 7.7012 8.66699 7.33301 8.66699H4.66699C4.2988 8.66699 4 8.36819 4 8C4 7.63181 4.2988 7.33301 4.66699 7.33301H7.33301ZM10 4.66699C10.3681 4.66699 10.6668 4.96497 10.667 5.33301C10.667 5.7012 10.3682 6 10 6H4.66699C4.2988 6 4 5.7012 4 5.33301C4.00018 4.96497 4.29891 4.66699 4.66699 4.66699H10Z" fill="#89909D"/>
</g>
<defs>
<clipPath id="clip0_2988_107744">
<rect width="16" height="16" fill="white"/>
</clipPath>
</defs>
</svg>
