<svg width="16" height="16" viewBox="0 0 16 16" fill="none" xmlns="http://www.w3.org/2000/svg">
<path d="M5.16699 1.33301C5.53503 1.33318 5.83301 1.63192 5.83301 2C5.83301 2.36808 5.53503 2.66682 5.16699 2.66699H4.6416V13.333H5.16699C5.53503 13.3332 5.83301 13.6319 5.83301 14C5.83301 14.3681 5.53503 14.6668 5.16699 14.667H2.83301C2.46497 14.6668 2.16699 14.3681 2.16699 14C2.16699 13.6319 2.46497 13.3332 2.83301 13.333H3.33301V2.66699H2.83301C2.46497 2.66681 2.16699 2.36808 2.16699 2C2.16699 1.63192 2.46497 1.33319 2.83301 1.33301H5.16699ZM9.35352 7.36621C9.47972 6.87899 10.1714 6.87757 10.2998 7.36426L10.4277 7.84766C10.6074 8.52818 11.1388 9.05966 11.8193 9.23926L12.3027 9.36719C12.7892 9.49582 12.787 10.1864 12.2998 10.3125L11.8252 10.4355C11.1405 10.6128 10.6053 11.1463 10.4248 11.8301L10.2998 12.3027C10.1712 12.7893 9.47963 12.7871 9.35352 12.2998L9.2334 11.8359C9.05526 11.1482 8.5179 10.6106 7.83008 10.4326L7.36621 10.3125C6.87915 10.1862 6.87763 9.49561 7.36426 9.36719L7.83691 9.24219C8.52048 9.06169 9.05314 8.52618 9.23047 7.8418L9.35352 7.36621ZM12.3281 2.92578C12.4172 2.58179 12.9054 2.58026 12.9961 2.92383L13.0859 3.26465C13.2127 3.74505 13.588 4.12024 14.0684 4.24707L14.4092 4.33789C14.7527 4.42854 14.752 4.91569 14.4082 5.00488L14.0732 5.0918C13.5899 5.21689 13.2114 5.59345 13.084 6.07617L12.9961 6.40918C12.9054 6.7527 12.4173 6.75205 12.3281 6.4082L12.2432 6.08008C12.1174 5.59468 11.7384 5.2155 11.2529 5.08984L10.9258 5.00488C10.5818 4.91585 10.5803 4.42856 10.9238 4.33789L11.2568 4.24902C11.7395 4.12165 12.1161 3.74397 12.2412 3.26074L12.3281 2.92578Z" fill="#21252C"/>
</svg>
