<svg width="16" height="16" viewBox="0 0 16 16" fill="none" xmlns="http://www.w3.org/2000/svg">
<path d="M7.51932 2.76886C7.65328 2.27757 8.35014 2.27757 8.4841 2.76886L8.59943 3.1918C9.15838 5.24169 10.7598 6.84309 12.8097 7.40204L13.2326 7.51737C13.7239 7.65133 13.7239 8.34819 13.2326 8.48215L12.8097 8.59747C10.7598 9.15643 9.15838 10.7578 8.59943 12.8077L8.4841 13.2307C8.35014 13.7219 7.65328 13.7219 7.51932 13.2307L7.404 12.8077C6.84504 10.7578 5.24364 9.15643 3.19376 8.59747L2.77081 8.48215C2.27952 8.34819 2.27952 7.65133 2.77081 7.51737L3.19376 7.40204C5.24364 6.84309 6.84504 5.24169 7.404 3.1918L7.51932 2.76886Z" fill="url(#paint0_linear_2988_99423)"/>
<defs>
<linearGradient id="paint0_linear_2988_99423" x1="9.50171" y1="19.4998" x2="18.8289" y2="11.3768" gradientUnits="userSpaceOnUse">
<stop offset="0.1" stop-color="#3B91FF"/>
<stop offset="0.5" stop-color="#0D5EFF"/>
<stop offset="0.85" stop-color="#C069FF"/>
</linearGradient>
</defs>
</svg>
