<svg width="18" height="18" viewBox="0 0 18 18" fill="none" xmlns="http://www.w3.org/2000/svg">
<path d="M13.1997 2.32422C14.5666 2.32422 15.6753 3.4329 15.6753 4.7998V13.2002C15.675 14.5669 14.5664 15.6748 13.1997 15.6748H4.80029C3.43355 15.6748 2.32497 14.5669 2.32471 13.2002V4.7998C2.32471 3.4329 3.43339 2.32422 4.80029 2.32422H13.1997ZM4.80029 3.6748C4.17897 3.6748 3.67529 4.17848 3.67529 4.7998V13.2002C3.67556 13.8213 4.17914 14.3252 4.80029 14.3252H13.1997C13.8209 14.3252 14.3244 13.8213 14.3247 13.2002V4.7998C14.3247 4.17848 13.821 3.6748 13.1997 3.6748H4.80029ZM6.00049 9.0752C6.37309 9.07542 6.67529 9.37735 6.67529 9.75V12C6.67513 12.3725 6.37299 12.6746 6.00049 12.6748C5.62779 12.6748 5.32487 12.3727 5.32471 12V9.75C5.32471 9.37721 5.6277 9.0752 6.00049 9.0752ZM9.00049 6.0752C9.37309 6.07542 9.67529 6.37735 9.67529 6.75V12C9.67513 12.3725 9.37299 12.6746 9.00049 12.6748C8.62779 12.6748 8.32487 12.3727 8.32471 12V6.75C8.32471 6.37721 8.6277 6.0752 9.00049 6.0752ZM12.0005 7.5752C12.3731 7.57542 12.6753 7.87735 12.6753 8.25V12C12.6751 12.3725 12.373 12.6746 12.0005 12.6748C11.6278 12.6748 11.3249 12.3727 11.3247 12V8.25C11.3247 7.87721 11.6277 7.5752 12.0005 7.5752Z" fill="#21252C"/>
</svg>
