<svg width="14" height="14" viewBox="0 0 14 14" fill="none" xmlns="http://www.w3.org/2000/svg">
<path fill-rule="evenodd" clip-rule="evenodd" d="M6.99978 1.45899C7.5681 1.45843 8.11709 1.6653 8.54371 2.04079C8.97032 2.41627 9.24523 2.93455 9.31683 3.49835C9.38843 4.06214 9.25181 4.63268 8.93259 5.10289C8.61338 5.5731 8.13354 5.91063 7.58312 6.05215V7.26053L9.57753 8.5077C10.0616 8.21279 10.6365 8.10417 11.1948 8.20212C11.753 8.30008 12.2566 8.59791 12.6114 9.03999C12.9661 9.48207 13.1478 10.0382 13.1225 10.6044C13.0972 11.1707 12.8667 11.7084 12.474 12.1171C12.0812 12.5258 11.5531 12.7776 10.9883 12.8254C10.4235 12.8732 9.86062 12.7138 9.40477 12.3769C8.94892 12.04 8.63127 11.5487 8.51117 10.9948C8.39107 10.4408 8.47671 9.86207 8.75212 9.36665L6.99949 8.27145L5.24774 9.36636C5.52314 9.86178 5.60879 10.4405 5.48869 10.9945C5.36858 11.5484 5.05094 12.0397 4.59509 12.3766C4.13923 12.7135 3.57634 12.8729 3.01154 12.8251C2.44673 12.7773 1.91864 12.5255 1.5259 12.1168C1.13315 11.7081 0.902608 11.1704 0.877324 10.6041C0.85204 10.0379 1.03374 9.48178 1.3885 9.0397C1.74326 8.59762 2.24681 8.29979 2.8051 8.20183C3.3634 8.10388 3.93826 8.2125 4.42232 8.5074L6.41645 7.26111V6.05245C5.86576 5.91115 5.38561 5.57367 5.06617 5.10338C4.74672 4.63309 4.60997 4.06236 4.68159 3.49836C4.75322 2.93437 5.02828 2.41593 5.45514 2.04042C5.88199 1.6649 6.43126 1.45815 6.99978 1.45899ZM3.20812 9.33399C2.8987 9.33399 2.60195 9.4569 2.38316 9.6757C2.16437 9.89449 2.04145 10.1912 2.04145 10.5007C2.04145 10.8101 2.16437 11.1068 2.38316 11.3256C2.60195 11.5444 2.8987 11.6673 3.20812 11.6673C3.51754 11.6673 3.81428 11.5444 4.03307 11.3256C4.25187 11.1068 4.37478 10.8101 4.37478 10.5007C4.37478 10.1912 4.25187 9.89449 4.03307 9.6757C3.81428 9.4569 3.51754 9.33399 3.20812 9.33399ZM10.7914 9.33399C10.482 9.33399 10.1853 9.4569 9.96649 9.6757C9.7477 9.89449 9.62478 10.1912 9.62478 10.5007C9.62478 10.8101 9.7477 11.1068 9.96649 11.3256C10.1853 11.5444 10.482 11.6673 10.7914 11.6673C11.1009 11.6673 11.3976 11.5444 11.6164 11.3256C11.8352 11.1068 11.9581 10.8101 11.9581 10.5007C11.9581 10.1912 11.8352 9.89449 11.6164 9.6757C11.3976 9.4569 11.1009 9.33399 10.7914 9.33399ZM6.99978 2.62565C6.69036 2.62565 6.39362 2.74857 6.17483 2.96736C5.95603 3.18615 5.83312 3.4829 5.83312 3.79232C5.83312 4.10174 5.95603 4.39849 6.17483 4.61728C6.39362 4.83607 6.69036 4.95899 6.99978 4.95899C7.3092 4.95899 7.60595 4.83607 7.82474 4.61728C8.04353 4.39849 8.16645 4.10174 8.16645 3.79232C8.16645 3.4829 8.04353 3.18615 7.82474 2.96736C7.60595 2.74857 7.3092 2.62565 6.99978 2.62565Z" fill="#606773"/>
</svg>
