<svg width="18" height="18" viewBox="0 0 18 18" fill="none" xmlns="http://www.w3.org/2000/svg">
<path fill-rule="evenodd" clip-rule="evenodd" d="M9.00003 2.3252C9.37282 2.3252 9.67503 2.6274 9.67503 3.0002V8.8338L14.1037 6.61945L11.7493 5.6777C11.4032 5.53925 11.2349 5.14642 11.3733 4.80029C11.5118 4.45416 11.9046 4.2858 12.2507 4.42425L15.0703 5.55209C15.9716 5.9126 16.0238 7.16874 15.1556 7.60286L9.33544 10.5129C9.1243 10.6185 8.87577 10.6185 8.66462 10.5129L2.84445 7.60286C1.97622 7.16874 2.02848 5.9126 2.92975 5.55209L5.74934 4.42425C6.09547 4.2858 6.4883 4.45416 6.62675 4.80029C6.7652 5.14642 6.59685 5.53925 6.25072 5.6777L3.89633 6.61945L8.32503 8.8338V3.0002C8.32503 2.6274 8.62724 2.3252 9.00003 2.3252ZM6.65646 13.1258C6.86347 12.8671 7.24105 12.8251 7.4998 13.0321L8.36151 13.7215V12.0003C8.36151 11.6477 8.64738 11.3618 9.00003 11.3618C9.35267 11.3618 9.63854 11.6477 9.63854 12.0003V13.7214L10.5002 13.0321C10.7589 12.8251 11.1365 12.8671 11.3435 13.1258C11.5505 13.3846 11.5086 13.7622 11.2498 13.9692L9.60906 15.2818C9.25297 15.5666 8.747 15.5666 8.39091 15.2818L6.75017 13.9692C6.49141 13.7622 6.44946 13.3846 6.65646 13.1258Z" fill="#21252C"/>
</svg>
