<svg width="16" height="16" viewBox="0 0 16 16" fill="none" xmlns="http://www.w3.org/2000/svg">
<path fill-rule="evenodd" clip-rule="evenodd" d="M2 3.66667C2 3.48986 2.07024 3.32029 2.19526 3.19526C2.32029 3.07024 2.48986 3 2.66667 3H13.3333C13.5101 3 13.6797 3.07024 13.8047 3.19526C13.9298 3.32029 14 3.48986 14 3.66667C14 3.84348 13.9298 4.01305 13.8047 4.13807C13.6797 4.2631 13.5101 4.33333 13.3333 4.33333H2.66667C2.48986 4.33333 2.32029 4.2631 2.19526 4.13807C2.07024 4.01305 2 3.84348 2 3.66667ZM2 8.15911C2 7.9823 2.07024 7.81273 2.19526 7.68771C2.32029 7.56268 2.48986 7.49244 2.66667 7.49244H11.1111C11.2879 7.49244 11.4575 7.56268 11.5825 7.68771C11.7075 7.81273 11.7778 7.9823 11.7778 8.15911C11.7778 8.33592 11.7075 8.50549 11.5825 8.63052C11.4575 8.75554 11.2879 8.82578 11.1111 8.82578H2.66667C2.48986 8.82578 2.32029 8.75554 2.19526 8.63052C2.07024 8.50549 2 8.33592 2 8.15911ZM2 12.3333C2 12.1565 2.07024 11.987 2.19526 11.8619C2.32029 11.7369 2.48986 11.6667 2.66667 11.6667H7.77778C7.95459 11.6667 8.12416 11.7369 8.24918 11.8619C8.37421 11.987 8.44444 12.1565 8.44444 12.3333C8.44444 12.5101 8.37421 12.6797 8.24918 12.8047C8.12416 12.9298 7.95459 13 7.77778 13H2.66667C2.48986 13 2.32029 12.9298 2.19526 12.8047C2.07024 12.6797 2 12.5101 2 12.3333Z" fill="#89909D"/>
</svg>
