<svg width="16" height="16" viewBox="0 0 16 16" fill="none" xmlns="http://www.w3.org/2000/svg">
<path fill-rule="evenodd" clip-rule="evenodd" d="M1.3999 8.00039C1.3999 4.35531 4.35482 1.40039 7.9999 1.40039C11.645 1.40039 14.5999 4.35531 14.5999 8.00039C14.5999 11.6455 11.645 14.6004 7.9999 14.6004C4.35482 14.6004 1.3999 11.6455 1.3999 8.00039ZM13.3999 8.00039C13.3999 5.01805 10.9822 2.60039 7.9999 2.60039C5.01756 2.60039 2.5999 5.01805 2.5999 8.00039C2.5999 10.9827 5.01756 13.4004 7.9999 13.4004C10.9822 13.4004 13.3999 10.9827 13.3999 8.00039Z" fill="#E33232"/>
<path d="M6 6.66667C6 6.29848 6.29848 6 6.66667 6H9.33333C9.70152 6 10 6.29848 10 6.66667V9.33333C10 9.70152 9.70152 10 9.33333 10H6.66667C6.29848 10 6 9.70152 6 9.33333V6.66667Z" fill="#E33232"/>
</svg>
