<svg width="18" height="18" viewBox="0 0 18 18" fill="none" xmlns="http://www.w3.org/2000/svg">
<path fill-rule="evenodd" clip-rule="evenodd" d="M2.32495 4.8002C2.32495 3.43329 3.43305 2.3252 4.79995 2.3252H13.2C14.5669 2.3252 15.675 3.43329 15.675 4.8002V13.2002C15.675 14.5671 14.5669 15.6752 13.2 15.6752H4.79995C3.43305 15.6752 2.32495 14.5671 2.32495 13.2002V4.8002ZM4.79995 3.6752C4.17863 3.6752 3.67495 4.17887 3.67495 4.8002V13.2002C3.67495 13.8215 4.17863 14.3252 4.79995 14.3252H13.2C13.8213 14.3252 14.325 13.8215 14.325 13.2002V4.8002C14.325 4.17887 13.8213 3.6752 13.2 3.6752H4.79995ZM6.07495 6.7502C6.07495 6.3774 6.37716 6.0752 6.74995 6.0752H11.25C11.6227 6.0752 11.925 6.3774 11.925 6.7502C11.925 7.12299 11.6227 7.4252 11.25 7.4252H9.67495V11.2502C9.67495 11.623 9.37274 11.9252 8.99995 11.9252C8.62716 11.9252 8.32495 11.623 8.32495 11.2502V7.4252H6.74995C6.37716 7.4252 6.07495 7.12299 6.07495 6.7502Z" fill="#21252C"/>
</svg>
